{
  "accessors": [
    {
      "bufferView": 1,
      "componentType": 5126,
      "count": 65532,
      "max": [
        6.6850104331970215,
        3.058927059173584,
        23.167325973510742
      ],
      "min": [
        -7.42047643661499,
        -2.6371729373931885,
        -10.744189262390137
      ],
      "type": "VEC3"
    },
    {
      "bufferView": 1,
      "byteOffset": 786384,
      "componentType": 5126,
      "count": 65532,
      "max": [
        0.9999907612800598,
        0.9999845623970032,
        0.9998346567153931
      ],
      "min": [
        -0.999966025352478,
        -0.9999954700469971,
        -0.9999938607215881
      ],
      "type": "VEC3"
    },
    {
      "bufferView": 0,
      "componentType": 5125,
      "count": 306297,
      "type": "SCALAR"
    },
    {
      "bufferView": 1,
      "byteOffset": 1572768,
      "componentType": 5126,
      "count": 65532,
      "max": [
        4.387478351593018,
        4.11444616317749,
        23.017166137695313
      ],
      "min": [
        -7.348834991455078,
        -3.2362990379333496,
        -10.42959213256836
      ],
      "type": "VEC3"
    },
    {
      "bufferView": 1,
      "byteOffset": 2359152,
      "componentType": 5126,
      "count": 65532,
      "max": [
        0.999960720539093,
        0.9999990463256836,
        0.9996743202209473
      ],
      "min": [
        -0.999900221824646,
        -0.9999933242797852,
        -0.9998050928115845
      ],
      "type": "VEC3"
    },
    {
      "bufferView": 0,
      "byteOffset": 1225188,
      "componentType": 5125,
      "count": 314673,
      "type": "SCALAR"
    },
    {
      "bufferView": 1,
      "byteOffset": 3145536,
      "componentType": 5126,
      "count": 65532,
      "max": [
        9.350377082824707,
        3.89387583732605,
        22.610198974609375
      ],
      "min": [
        -7.622525215148926,
        -4.31891393661499,
        -10.563019752502441
      ],
      "type": "VEC3"
    },
    {
      "bufferView": 1,
      "byteOffset": 3931920,
      "componentType": 5126,
      "count": 65532,
      "max": [
        0.9999706149101257,
        0.9999905824661255,
        0.999671459197998
      ],
      "min": [
        -0.9999792575836182,
        -0.999994695186615,
        -0.9995551705360413
      ],
      "type": "VEC3"
    },
    {
      "bufferView": 0,
      "byteOffset": 2483880,
      "componentType": 5125,
      "count": 309060,
      "type": "SCALAR"
    },
    {
      "bufferView": 1,
      "byteOffset": 4718304,
      "componentType": 5126,
      "count": 65532,
      "max": [
        9.286690711975098,
        2.981602668762207,
        22.68903923034668
      ],
      "min": [
        -7.595564365386963,
        -4.9320268630981445,
        -10.296712875366211
      ],
      "type": "VEC3"
    },
    {
      "bufferView": 1,
      "byteOffset": 5504688,
      "componentType": 5126,
      "count": 65532,
      "max": [
        0.9999973177909851,
        0.9999740719795227,
        0.9999956488609314
      ],
      "min": [
        -0.9999871253967285,
        -0.9999929666519165,
        -0.9997653961181641
      ],
      "type": "VEC3"
    },
    {
      "bufferView": 0,
      "byteOffset": 3720120,
      "componentType": 5125,
      "count": 310374,
      "type": "SCALAR"
    },
    {
      "bufferView": 1,
      "byteOffset": 6291072,
      "componentType": 5126,
      "count": 65532,
      "max": [
        7.984375,
        4.117706298828125,
        18.90110969543457
      ],
      "min": [
        -7.621067047119141,
        -2.58553409576416,
        -10.517634391784668
      ],
      "type": "VEC3"
    },
    {
      "bufferView": 1,
      "byteOffset": 7077456,
      "componentType": 5126,
      "count": 65532,
      "max": [
        0.9999924302101135,
        0.9999964833259583,
        0.9964041113853455
      ],
      "min": [
        -0.9999886155128479,
        -0.9999998211860657,
        -0.9998323917388916
      ],
      "type": "VEC3"
    },
    {
      "bufferView": 0,
      "byteOffset": 4961616,
      "componentType": 5125,
      "count": 317721,
      "type": "SCALAR"
    },
    {
      "bufferView": 1,
      "byteOffset": 7863840,
      "componentType": 5126,
      "count": 65532,
      "max": [
        9.301389694213867,
        4.074088096618652,
        20.586814880371094
      ],
      "min": [
        -7.455550670623779,
        -4.839562892913818,
        -10.759663581848145
      ],
      "type": "VEC3"
    },
    {
      "bufferView": 1,
      "byteOffset": 8650224,
      "componentType": 5126,
      "count": 65532,
      "max": [
        0.9999896883964539,
        0.999955952167511,
        0.9997609257698059
      ],
      "min": [
        -0.9999704360961914,
        -0.9999964237213135,
        -0.9999081492424011
      ],
      "type": "VEC3"
    },
    {
      "bufferView": 0,
      "byteOffset": 6232500,
      "componentType": 5125,
      "count": 315249,
      "type": "SCALAR"
    },
    {
      "bufferView": 1,
      "byteOffset": 9436608,
      "componentType": 5126,
      "count": 65532,
      "max": [
        9.322065353393555,
        4.075274467468262,
        23.190608978271484
      ],
      "min": [
        -7.4785237312316895,
        -4.847510814666748,
        -10.696962356567383
      ],
      "type": "VEC3"
    },
    {
      "bufferView": 1,
      "byteOffset": 10222992,
      "componentType": 5126,
      "count": 65532,
      "max": [
        0.9999668598175049,
        0.9999943971633911,
        0.9997918009757996
      ],
      "min": [
        -0.9999889135360718,
        -0.999994695186615,
        -0.999983012676239
      ],
      "type": "VEC3"
    },
    {
      "bufferView": 0,
      "byteOffset": 7493496,
      "componentType": 5125,
      "count": 317781,
      "type": "SCALAR"
    },
    {
      "bufferView": 1,
      "byteOffset": 11009376,
      "componentType": 5126,
      "count": 65532,
      "max": [
        8.916747093200684,
        3.9876537322998047,
        23.229694366455078
      ],
      "min": [
        -7.448261260986328,
        -4.835186958312988,
        -10.733809471130371
      ],
      "type": "VEC3"
    },
    {
      "bufferView": 1,
      "byteOffset": 11795760,
      "componentType": 5126,
      "count": 65532,
      "max": [
        0.9999955296516418,
        0.9999997019767761,
        0.9998849630355835
      ],
      "min": [
        -0.9999485611915588,
        -0.9998448491096497,
        -0.9999023079872131
      ],
      "type": "VEC3"
    },
    {
      "bufferView": 0,
      "byteOffset": 8764620,
      "componentType": 5125,
      "count": 311199,
      "type": "SCALAR"
    },
    {
      "bufferView": 1,
      "byteOffset": 12582144,
      "componentType": 5126,
      "count": 65532,
      "max": [
        7.9724931716918945,
        3.770934820175171,
        23.337528228759766
      ],
      "min": [
        -7.411303997039795,
        -4.611804008483887,
        -10.745023727416992
      ],
      "type": "VEC3"
    },
    {
      "bufferView": 1,
      "byteOffset": 13368528,
      "componentType": 5126,
      "count": 65532,
      "max": [
        0.9999977946281433,
        0.9999688267707825,
        0.9999151825904846
      ],
      "min": [
        -0.999970555305481,
        -0.9999964237213135,
        -0.9999253153800964
      ],
      "type": "VEC3"
    },
    {
      "bufferView": 0,
      "byteOffset": 10009416,
      "componentType": 5125,
      "count": 320235,
      "type": "SCALAR"
    },
    {
      "bufferView": 1,
      "byteOffset": 14154912,
      "componentType": 5126,
      "count": 65532,
      "max": [
        9.086483001708984,
        3.869769334793091,
        23.409332275390625
      ],
      "min": [
        -7.6605024337768555,
        -4.5486016273498535,
        -10.749367713928223
      ],
      "type": "VEC3"
    },
    {
      "bufferView": 1,
      "byteOffset": 14941296,
      "componentType": 5126,
      "count": 65532,
      "max": [
        0.9999974370002747,
        0.9999851584434509,
        0.9998133182525635
      ],
      "min": [
        -0.9999523162841797,
        -0.9999939799308777,
        -0.9999461770057678
      ],
      "type": "VEC3"
    },
    {
      "bufferView": 0,
      "byteOffset": 11290356,
      "componentType": 5125,
      "count": 319056,
      "type": "SCALAR"
    },
    {
      "bufferView": 1,
      "byteOffset": 15727680,
      "componentType": 5126,
      "count": 65532,
      "max": [
        9.220723152160645,
        3.738386631011963,
        23.422767639160156
      ],
      "min": [
        -7.650418281555176,
        -4.4526519775390625,
        -10.721999168395996
      ],
      "type": "VEC3"
    },
    {
      "bufferView": 1,
      "byteOffset": 16514064,
      "componentType": 5126,
      "count": 65532,
      "max": [
        0.999995768070221,
        0.9999749660491943,
        0.9999256134033203
      ],
      "min": [
        -0.999942421913147,
        -0.9999126195907593,
        -0.9999786615371704
      ],
      "type": "VEC3"
    },
    {
      "bufferView": 0,
      "byteOffset": 12566580,
      "componentType": 5125,
      "count": 319974,
      "type": "SCALAR"
    },
    {
      "bufferView": 1,
      "byteOffset": 17300448,
      "componentType": 5126,
      "count": 65532,
      "max": [
        9.151368141174316,
        3.985562324523926,
        23.27130889892578
      ],
      "min": [
        -7.319087505340576,
        -4.935864448547363,
        -10.663138389587402
      ],
      "type": "VEC3"
    },
    {
      "bufferView": 1,
      "byteOffset": 18086832,
      "componentType": 5126,
      "count": 65532,
      "max": [
        0.999997079372406,
        0.9998922348022461,
        0.9993342161178589
      ],
      "min": [
        -0.9999763369560242,
        -0.9999712705612183,
        -0.9996733069419861
      ],
      "type": "VEC3"
    },
    {
      "bufferView": 0,
      "byteOffset": 13846476,
      "componentType": 5125,
      "count": 311757,
      "type": "SCALAR"
    },
    {
      "bufferView": 1,
      "byteOffset": 18873216,
      "componentType": 5126,
      "count": 65532,
      "max": [
        9.198107719421387,
        4.096834182739258,
        23.262393951416016
      ],
      "min": [
        -7.455904960632324,
        -4.8509087562561035,
        -10.715010643005371
      ],
      "type": "VEC3"
    },
    {
      "bufferView": 1,
      "byteOffset": 19659600,
      "componentType": 5126,
      "count": 65532,
      "max": [
        0.9999935626983643,
        0.9999876618385315,
        0.9994533061981201
      ],
      "min": [
        -0.9999907612800598,
        -0.9999656677246094,
        -0.9999851584434509
      ],
      "type": "VEC3"
    },
    {
      "bufferView": 0,
      "byteOffset": 15093504,
      "componentType": 5125,
      "count": 307359,
      "type": "SCALAR"
    },
    {
      "bufferView": 1,
      "byteOffset": 20445984,
      "componentType": 5126,
      "count": 65532,
      "max": [
        9.245265007019043,
        4.114411354064941,
        23.36931037902832
      ],
      "min": [
        -7.624442100524902,
        -4.78033447265625,
        -10.746902465820313
      ],
      "type": "VEC3"
    },
    {
      "bufferView": 1,
      "byteOffset": 21232368,
      "componentType": 5126,
      "count": 65532,
      "max": [
        0.9999973177909851,
        0.9999860525131226,
        0.9999564290046692
      ],
      "min": [
        -0.9999907612800598,
        -0.9999808073043823,
        -0.99991774559021
      ],
      "type": "VEC3"
    },
    {
      "bufferView": 0,
      "byteOffset": 16322940,
      "componentType": 5125,
      "count": 293715,
      "type": "SCALAR"
    },
    {
      "bufferView": 1,
      "byteOffset": 22018752,
      "componentType": 5126,
      "count": 65532,
      "max": [
        9.325492858886719,
        4.093087673187256,
        23.403030395507813
      ],
      "min": [
        -7.6057329177856445,
        -4.935864448547363,
        -10.732781410217285
      ],
      "type": "VEC3"
    },
    {
      "bufferView": 1,
      "byteOffset": 22805136,
      "componentType": 5126,
      "count": 65532,
      "max": [
        0.9998989701271057,
        0.9999952912330627,
        0.9999620318412781
      ],
      "min": [
        -0.999970555305481,
        -0.9999986290931702,
        -0.9998437762260437
      ],
      "type": "VEC3"
    },
    {
      "bufferView": 0,
      "byteOffset": 17497800,
      "componentType": 5125,
      "count": 265836,
      "type": "SCALAR"
    },
    {
      "bufferView": 1,
      "byteOffset": 23591520,
      "componentType": 5126,
      "count": 65532,
      "max": [
        9.323925018310547,
        4.109109878540039,
        23.41120719909668
      ],
      "min": [
        -7.625189781188965,
        -4.916203498840332,
        -10.75046157836914
      ],
      "type": "VEC3"
    },
    {
      "bufferView": 1,
      "byteOffset": 24377904,
      "componentType": 5126,
      "count": 65532,
      "max": [
        0.9999668598175049,
        0.9999871253967285,
        0.9998859763145447
      ],
      "min": [
        -0.9999797344207764,
        -0.9999760985374451,
        -0.9999839067459106
      ],
      "type": "VEC3"
    },
    {
      "bufferView": 0,
      "byteOffset": 18561144,
      "componentType": 5125,
      "count": 221310,
      "type": "SCALAR"
    },
    {
      "bufferView": 1,
      "byteOffset": 25164288,
      "componentType": 5126,
      "count": 65532,
      "max": [
        9.339345932006836,
        4.116408824920654,
        23.409332275390625
      ],
      "min": [
        -7.657245635986328,
        -4.9319939613342285,
        -10.738086700439453
      ],
      "type": "VEC3"
    },
    {
      "bufferView": 1,
      "byteOffset": 25950672,
      "componentType": 5126,
      "count": 65532,
      "max": [
        0.9999969601631165,
        0.9999895691871643,
        0.9999956488609314
      ],
      "min": [
        -0.999879002571106,
        -0.9999933242797852,
        -0.9999725222587585
      ],
      "type": "VEC3"
    },
    {
      "bufferView": 0,
      "byteOffset": 19446384,
      "componentType": 5125,
      "count": 162006,
      "type": "SCALAR"
    },
    {
      "bufferView": 1,
      "byteOffset": 26737056,
      "componentType": 5126,
      "count": 65532,
      "max": [
        9.346329689025879,
        4.111839771270752,
        23.385225296020508
      ],
      "min": [
        -7.650299072265625,
        -4.9300103187561035,
        -10.741281509399414
      ],
      "type": "VEC3"
    },
    {
      "bufferView": 1,
      "byteOffset": 27523440,
      "componentType": 5126,
      "count": 65532,
      "max": [
        0.9999868273735046,
        0.9999929666519165,
        0.9999256134033203
      ],
      "min": [
        -0.9999907612800598,
        -0.9999918937683105,
        -0.9999461770057678
      ],
      "type": "VEC3"
    },
    {
      "bufferView": 0,
      "byteOffset": 20094408,
      "componentType": 5125,
      "count": 114477,
      "type": "SCALAR"
    },
    {
      "bufferView": 1,
      "byteOffset": 28309824,
      "componentType": 5126,
      "count": 14418,
      "max": [
        9.339995384216309,
        4.101612091064453,
        23.395238876342773
      ],
      "min": [
        -7.554591655731201,
        -4.775291442871094,
        -10.709040641784668
      ],
      "type": "VEC3"
    },
    {
      "bufferView": 1,
      "byteOffset": 28482840,
      "componentType": 5126,
      "count": 14418,
      "max": [
        0.9999778270721436,
        0.9999587535858154,
        0.9998014569282532
      ],
      "min": [
        -0.9999656677246094,
        -0.9999964237213135,
        -0.9989621043205261
      ],
      "type": "VEC3"
    },
    {
      "bufferView": 0,
      "byteOffset": 20552316,
      "componentType": 5125,
      "count": 16758,
      "type": "SCALAR"
    }
  ],
  "asset": {
    "extras": {
      "author": "Fred Drabble (https://sketchfab.com/FredDrabble)",
      "license": "CC-BY-NC-4.0 (http://creativecommons.org/licenses/by-nc/4.0/)",
      "source": "https://sketchfab.com/3d-models/vecna-stranger-things-fan-art-7369064f60d04514aab032abff4d0202",
      "title": "VECNA stranger things fan art"
    },
    "generator": "Sketchfab-15.47.0",
    "version": "2.0"
  },
  "bufferViews": [
    {
      "buffer": 0,
      "byteLength": 20619348,
      "name": "floatBufferViews",
      "target": 34963
    },
    {
      "buffer": 0,
      "byteLength": 28655856,
      "byteOffset": 20619348,
      "byteStride": 12,
      "name": "floatBufferViews",
      "target": 34962
    }
  ],
  "buffers": [
    {
      "byteLength": 49275204,
      "uri": "scene.bin"
    }
  ],
  "materials": [
    {
      "doubleSided": true,
      "name": "material_0",
      "pbrMetallicRoughness": {
        "baseColorFactor": [
          0.1964548204399266,
          0.14913373908832064,
          0.2618891781927143,
          1.0
        ],
        "metallicFactor": 0.0,
        "roughnessFactor": 0.43123940949153367
      }
    }
  ],
  "meshes": [
    {
      "name": "Object_0",
      "primitives": [
        {
          "attributes": {
            "NORMAL": 1,
            "POSITION": 0
          },
          "indices": 2,
          "material": 0,
          "mode": 4
        }
      ]
    },
    {
      "name": "Object_1",
      "primitives": [
        {
          "attributes": {
            "NORMAL": 4,
            "POSITION": 3
          },
          "indices": 5,
          "material": 0,
          "mode": 4
        }
      ]
    },
    {
      "name": "Object_2",
      "primitives": [
        {
          "attributes": {
            "NORMAL": 7,
            "POSITION": 6
          },
          "indices": 8,
          "material": 0,
          "mode": 4
        }
      ]
    },
    {
      "name": "Object_3",
      "primitives": [
        {
          "attributes": {
            "NORMAL": 10,
            "POSITION": 9
          },
          "indices": 11,
          "material": 0,
          "mode": 4
        }
      ]
    },
    {
      "name": "Object_4",
      "primitives": [
        {
          "attributes": {
            "NORMAL": 13,
            "POSITION": 12
          },
          "indices": 14,
          "material": 0,
          "mode": 4
        }
      ]
    },
    {
      "name": "Object_5",
      "primitives": [
        {
          "attributes": {
            "NORMAL": 16,
            "POSITION": 15
          },
          "indices": 17,
          "material": 0,
          "mode": 4
        }
      ]
    },
    {
      "name": "Object_6",
      "primitives": [
        {
          "attributes": {
            "NORMAL": 19,
            "POSITION": 18
          },
          "indices": 20,
          "material": 0,
          "mode": 4
        }
      ]
    },
    {
      "name": "Object_7",
      "primitives": [
        {
          "attributes": {
            "NORMAL": 22,
            "POSITION": 21
          },
          "indices": 23,
          "material": 0,
          "mode": 4
        }
      ]
    },
    {
      "name": "Object_8",
      "primitives": [
        {
          "attributes": {
            "NORMAL": 25,
            "POSITION": 24
          },
          "indices": 26,
          "material": 0,
          "mode": 4
        }
      ]
    },
    {
      "name": "Object_9",
      "primitives": [
        {
          "attributes": {
            "NORMAL": 28,
            "POSITION": 27
          },
          "indices": 29,
          "material": 0,
          "mode": 4
        }
      ]
    },
    {
      "name": "Object_10",
      "primitives": [
        {
          "attributes": {
            "NORMAL": 31,
            "POSITION": 30
          },
          "indices": 32,
          "material": 0,
          "mode": 4
        }
      ]
    },
    {
      "name": "Object_11",
      "primitives": [
        {
          "attributes": {
            "NORMAL": 34,
            "POSITION": 33
          },
          "indices": 35,
          "material": 0,
          "mode": 4
        }
      ]
    },
    {
      "name": "Object_12",
      "primitives": [
        {
          "attributes": {
            "NORMAL": 37,
            "POSITION": 36
          },
          "indices": 38,
          "material": 0,
          "mode": 4
        }
      ]
    },
    {
      "name": "Object_13",
      "primitives": [
        {
          "attributes": {
            "NORMAL": 40,
            "POSITION": 39
          },
          "indices": 41,
          "material": 0,
          "mode": 4
        }
      ]
    },
    {
      "name": "Object_14",
      "primitives": [
        {
          "attributes": {
            "NORMAL": 43,
            "POSITION": 42
          },
          "indices": 44,
          "material": 0,
          "mode": 4
        }
      ]
    },
    {
      "name": "Object_15",
      "primitives": [
        {
          "attributes": {
            "NORMAL": 46,
            "POSITION": 45
          },
          "indices": 47,
          "material": 0,
          "mode": 4
        }
      ]
    },
    {
      "name": "Object_16",
      "primitives": [
        {
          "attributes": {
            "NORMAL": 49,
            "POSITION": 48
          },
          "indices": 50,
          "material": 0,
          "mode": 4
        }
      ]
    },
    {
      "name": "Object_17",
      "primitives": [
        {
          "attributes": {
            "NORMAL": 52,
            "POSITION": 51
          },
          "indices": 53,
          "material": 0,
          "mode": 4
        }
      ]
    },
    {
      "name": "Object_18",
      "primitives": [
        {
          "attributes": {
            "NORMAL": 55,
            "POSITION": 54
          },
          "indices": 56,
          "material": 0,
          "mode": 4
        }
      ]
    }
  ],
  "nodes": [
    {
      "children": [
        1
      ],
      "matrix": [
        0.06822297722101212,
        0.0,
        0.0,
        0.0,
        0.0,
        1.5148544023849046e-17,
        -0.06822297722101212,
        0.0,
        0.0,
        0.06822297722101212,
        1.5148544023849046e-17,
        0.0,
        0.0,
        0.0,
        0.0,
        1.0
      ],
      "name": "Sketchfab_model"
    },
    {
      "children": [
        2,
        3,
        4,
        5,
        6,
        7,
        8,
        9,
        10,
        11,
        12,
        13,
        14,
        15,
        16,
        17,
        18,
        19,
        20
      ],
      "name": "vecna3dprintmesh.obj.cleaner.materialmerger.gles"
    },
    {
      "mesh": 0,
      "name": "Object_2"
    },
    {
      "mesh": 1,
      "name": "Object_3"
    },
    {
      "mesh": 2,
      "name": "Object_4"
    },
    {
      "mesh": 3,
      "name": "Object_5"
    },
    {
      "mesh": 4,
      "name": "Object_6"
    },
    {
      "mesh": 5,
      "name": "Object_7"
    },
    {
      "mesh": 6,
      "name": "Object_8"
    },
    {
      "mesh": 7,
      "name": "Object_9"
    },
    {
      "mesh": 8,
      "name": "Object_10"
    },
    {
      "mesh": 9,
      "name": "Object_11"
    },
    {
      "mesh": 10,
      "name": "Object_12"
    },
    {
      "mesh": 11,
      "name": "Object_13"
    },
    {
      "mesh": 12,
      "name": "Object_14"
    },
    {
      "mesh": 13,
      "name": "Object_15"
    },
    {
      "mesh": 14,
      "name": "Object_16"
    },
    {
      "mesh": 15,
      "name": "Object_17"
    },
    {
      "mesh": 16,
      "name": "Object_18"
    },
    {
      "mesh": 17,
      "name": "Object_19"
    },
    {
      "mesh": 18,
      "name": "Object_20"
    }
  ],
  "scene": 0,
  "scenes": [
    {
      "name": "Sketchfab_Scene",
      "nodes": [
        0
      ]
    }
  ]
}
